<svg width="22" height="22" viewBox="0 0 22 22" fill="none" xmlns="http://www.w3.org/2000/svg">
<path d="M12.5757 20.5237L11.4917 21.6077C11.0327 22.0667 10.2905 22.0667 9.83643 21.6077L0.344238 12.1204C-0.114746 11.6614 -0.114746 10.9192 0.344238 10.4651L9.83643 0.9729C10.2954 0.513916 11.0376 0.513916 11.4917 0.9729L12.5757 2.05688C13.0395 2.52075 13.0298 3.27759 12.5562 3.73169L6.67236 9.33716H20.7056C21.355 9.33716 21.8774 9.85962 21.8774 10.509V12.0715C21.8774 12.7209 21.355 13.2434 20.7056 13.2434H6.67236L12.5562 18.8489C13.0347 19.303 13.0444 20.0598 12.5757 20.5237Z" fill="#FD9340"/>
</svg>
