<svg width="14" height="14" viewBox="0 0 14 14" fill="none" xmlns="http://www.w3.org/2000/svg">
<path d="M5.95246 1.80604L6.64613 1.14517C6.93985 0.865346 7.4148 0.865346 7.70539 1.14517L13.7797 6.92923C14.0734 7.20906 14.0734 7.66155 13.7797 7.93839L7.70539 13.7254C7.41167 14.0053 6.93673 14.0053 6.64613 13.7254L5.95246 13.0646C5.65562 12.7818 5.66187 12.3203 5.96496 12.0435L9.73016 8.62605H0.749916C0.334338 8.62605 0 8.30753 0 7.9116V6.959C0 6.56308 0.334338 6.24455 0.749916 6.24455H9.73016L5.96496 2.8271C5.65874 2.55026 5.65249 2.08884 5.95246 1.80604Z" fill="#FD9340"/>
</svg>
