<svg width="19" height="19" viewBox="0 0 19 19" fill="none" xmlns="http://www.w3.org/2000/svg">
<path d="M18.2456 16.4944L14.6435 12.8922C14.4809 12.7296 14.2605 12.6393 14.0293 12.6393H13.4404C14.4375 11.3639 15.0301 9.75975 15.0301 8.01467C15.0301 3.86334 11.6664 0.499634 7.51504 0.499634C3.3637 0.499634 0 3.86334 0 8.01467C0 12.166 3.3637 15.5297 7.51504 15.5297C9.26012 15.5297 10.8643 14.9372 12.1397 13.94V14.5289C12.1397 14.7601 12.23 14.9805 12.3926 15.1431L15.9948 18.7453C16.3344 19.0849 16.8835 19.0849 17.2196 18.7453L18.242 17.7228C18.5817 17.3832 18.5817 16.834 18.2456 16.4944ZM7.51504 12.6393C4.96065 12.6393 2.8904 10.5727 2.8904 8.01467C2.8904 5.46028 4.95704 3.39003 7.51504 3.39003C10.0694 3.39003 12.1397 5.45667 12.1397 8.01467C12.1397 10.5691 10.073 12.6393 7.51504 12.6393Z" fill="#FD9340"/>
</svg>
